<?xml version="1.0" standalone="no"?>
<!DOCTYPE svg PUBLIC "-//W3C//DTD SVG 20010904//EN"
 "http://www.w3.org/TR/2001/REC-SVG-20010904/DTD/svg10.dtd">
<svg version="1.0" xmlns="http://www.w3.org/2000/svg"
 width="700.000000pt" height="700.000000pt" viewBox="0 0 700.000000 700.000000"
 preserveAspectRatio="xMidYMid meet">
<metadata>
Created by potrace 1.14, written by Peter Selinger 2001-2017
</metadata>
<g transform="translate(0.000000,700.000000) scale(0.100000,-0.100000)"
fill="#000000" stroke="none">
<path d="M4847 6284 c-1 -1 -39 -4 -84 -8 -279 -20 -560 -136 -782 -324 -36
-31 -195 -186 -353 -344 -320 -321 -337 -344 -346 -467 -15 -211 142 -377 355
-374 58 1 85 7 136 31 57 26 102 67 385 348 247 246 335 328 388 360 127 74
235 103 375 99 115 -4 144 -9 239 -46 198 -76 349 -237 417 -444 22 -67 26
-99 27 -195 0 -65 -5 -139 -13 -170 -17 -69 -69 -184 -110 -244 -41 -59 -1168
-1186 -1227 -1226 -118 -82 -236 -121 -379 -126 -196 -6 -366 58 -513 195 -24
22 -69 53 -100 68 -50 25 -68 28 -152 28 -85 0 -101 -3 -153 -29 -210 -107
-257 -380 -95 -556 83 -91 255 -211 391 -275 87 -40 225 -89 285 -100 15 -3
39 -7 53 -10 196 -37 415 -30 613 21 204 53 426 172 575 308 108 99 1133 1129
1181 1187 138 165 251 396 289 589 18 90 19 92 26 160 19 171 4 340 -49 540
-37 139 -139 336 -244 470 -110 140 -310 304 -471 385 -144 72 -353 131 -500
141 -113 7 -162 10 -164 8z"/>
<path d="M3019 4546 c-2 -2 -30 -7 -63 -11 -213 -24 -461 -127 -651 -271 -104
-78 -1253 -1225 -1331 -1330 -200 -264 -294 -551 -288 -876 2 -141 12 -212 44
-335 104 -387 373 -714 735 -895 87 -43 241 -97 336 -118 154 -33 410 -33 554
0 28 7 59 13 70 16 106 21 300 106 420 184 116 76 166 122 506 462 359 359
364 365 364 513 0 77 -4 98 -27 148 -82 174 -288 250 -461 170 -58 -28 -99
-65 -377 -342 -171 -171 -331 -324 -353 -340 -51 -34 -167 -94 -167 -85 0 4
-6 2 -12 -3 -49 -39 -283 -50 -397 -20 -61 16 -119 39 -151 58 -8 4 -31 16
-50 26 -56 27 -192 170 -233 244 -35 62 -71 152 -83 209 -3 14 -7 66 -9 115
-6 140 26 265 98 388 34 57 146 174 614 642 315 315 592 588 615 607 187 146
429 185 661 107 78 -26 180 -89 252 -155 80 -73 148 -105 235 -112 278 -20
460 263 332 514 -26 51 -120 144 -227 224 -124 93 -375 209 -507 234 -13 2
-34 7 -48 10 -14 3 -41 8 -60 11 -41 7 -335 16 -341 11z"/>
</g>
</svg>
